<svg xmlns="http://www.w3.org/2000/svg" width="1200" height="800" viewBox="0 0 1200 800">
  <defs>
    <linearGradient id="shade" x1="0" y1="0" x2="1" y2="0">
      <stop offset="0" stop-color="#151219" stop-opacity="0.97"/>
      <stop offset="0.48" stop-color="#151219" stop-opacity="0.91"/>
      <stop offset="0.78" stop-color="#151219" stop-opacity="0.36"/>
      <stop offset="1" stop-color="#151219" stop-opacity="0.08"/>
    </linearGradient>
  </defs>

  <rect width="1200" height="800" fill="url(#shade)"/>

  <g transform="translate(76 68) scale(.39)">
    <rect width="256" height="256" rx="64" fill="#8b5cf6"/>
    <rect x="72" y="36" width="112" height="184" rx="28" fill="#fff8ec"/>
    <rect x="88" y="56" width="80" height="56" rx="14" fill="#25202d"/>
    <circle cx="148" cy="74" r="8" fill="#f39a66"/>
    <path d="M96 101l22-23 16 16 12-11 14 18H96z" fill="#d7c9ff"/>
    <rect x="88" y="132" width="64" height="10" rx="5" fill="#25202d"/>
    <rect x="88" y="151" width="80" height="8" rx="4" fill="#9c92a7"/>
    <rect x="88" y="167" width="54" height="8" rx="4" fill="#9c92a7"/>
    <rect x="88" y="192" width="80" height="12" rx="6" fill="#f06f46"/>
  </g>

  <line x1="82" y1="542" x2="558" y2="542" stroke="#8b5cf6" stroke-width="6" stroke-linecap="round"/>
</svg>
